<svg width="27" height="27" viewBox="0 0 27 27" fill="None" xmlns="http://www.w3.org/2000/svg">
    <g transform="translate(2.5,0)">
        <path d="M20.7928 19.5358L17.9757 15.3976C17.9757 14.1308 17.9757 11.0353 17.9757 10.2346C17.9757 6.75275 15.496 3.8504 12.2064 3.19634V1.60648C12.2063 0.829312 11.5763 0.199219 10.799 0.199219C10.0218 0.199219 9.39178 0.829312 9.39178 1.60648V3.1964C6.10211 3.85052 3.62242 6.75286 3.62242 10.2347C3.62242 11.5977 3.62242 14.6076 3.62242 15.3976L0.805311 19.5359C0.50857 19.9718 0.477189 20.536 0.723755 21.0021C0.97032 21.4682 1.45437 21.7597 1.9817 21.7597H19.6164C20.1437 21.7597 20.6278 21.4682 20.8743 21.0021C21.1209 20.5359 21.0895 19.9717 20.7928 19.5358Z" fill="#353535"/>
        <g transform="translate(7.2,22.6)">
            <path d="M0.670439 0.449219C0.670382 0.456116 0.669922 0.462954 0.669922 0.469851C0.669922 2.19857 2.07132 3.59997 3.80004 3.59997C5.52876 3.59997 6.93016 2.19857 6.93016 0.469851C6.93016 0.462954 6.9297 0.456116 6.92964 0.449219H0.670439Z" fill="#353535"/>
        </g>
    </g>
</svg>
