<svg width="26" height="26" viewBox="0 0 26 26" fill="None" xmlns="http://www.w3.org/2000/svg">
    <circle cx="13" cy="13" r="13" fill="#E6D15F" />
    <g transform="translate(3.4,4.5) scale(0.95 0.95)">
        <path d="M16.7608 6.47968L16.3133 6.13477C15.8845 6.14409 15.4557 6.1907 15.0176 6.2746L16.7608 7.61697V6.47968Z" fill="white"/>
        <path d="M3.8132 2.66671V0.382812H1.5293V4.46586L2.28438 3.81332V1.14722H3.04879V3.3379L3.8132 2.66671Z" fill="white"/>
        <path d="M0 7.62542L8.38051 1.14661L12.6873 4.46525C12.8644 4.37203 13.0415 4.27881 13.228 4.18559C13.3492 4.12966 13.4703 4.07373 13.5915 4.0178L8.38051 0L0 6.47881V7.62542Z" fill="white"/>
        <path d="M21.9996 5.06207L18.5971 1.89258L18.3547 3.6358C16.9657 3.7197 11.5216 4.33495 9.34961 9.0519C12.7708 4.74512 17.0869 5.31376 18.0937 5.51885L17.8606 7.16885L21.9996 5.06207Z" fill="white"/>
        <path d="M1.5293 7.5508V16.761H5.31404V16.0059H2.28438V6.93555L1.5293 7.5508Z" fill="white"/>
        <path d="M8.11858 9.89917L8.47282 9.13477H6.0957V16.7602H10.6728V9.13477H10.272C10.1601 9.25595 10.0576 9.38646 9.9457 9.52629L9.6474 9.89917H9.90842V15.9958H6.86011V9.89917H8.11858Z" fill="white"/>
        <path d="M14.4867 16.005H11.457V16.7601H15.2418V7.52195L14.4867 6.91602V16.005Z" fill="white"/>
    </g>
</svg>


