<svg width="26" height="26" viewBox="0 0 26 26" fill="None" xmlns="http://www.w3.org/2000/svg">
    <circle cx="13" cy="13" r="13" fill="#4B63B9" />
    <g transform="translate(2.5,7.2) scale(0.95 0.95)">
        <path d="M20.4367 5.74612H20.2198V2.23375C20.2198 1.00207 19.1972 0 17.9403 0H4.05958C2.80272 0 1.78011 1.00207 1.78011 2.23375V5.74612H1.56318C0.701274 5.74612 0 6.43331 0 7.27797V9.54751C0 10.3922 0.701274 11.0794 1.56325 11.0794H3.49589V12.5209C3.49589 12.7855 3.71478 13 3.98478 13C4.25479 13 4.47367 12.7855 4.47367 12.5209V11.0794H17.5263V12.5209C17.5263 12.7855 17.7452 13 18.0152 13C18.2852 13 18.5041 12.7855 18.5041 12.5209V11.0794H20.4367C21.2987 11.0794 22 10.3922 22 9.54751V7.27797C21.9999 6.43331 21.2987 5.74612 20.4367 5.74612ZM2.75788 2.23375C2.75788 1.53041 3.34175 0.958132 4.05958 0.958132H17.9403C18.6581 0.958132 19.242 1.53034 19.242 2.23375V5.74612H18.6153V4.78409C18.6153 4.17061 18.106 3.67156 17.48 3.67156H12.4687C11.8425 3.67156 11.3332 4.17061 11.3332 4.78409V5.74612H10.6667V4.78409C10.6667 4.17061 10.1573 3.67156 9.53121 3.67156H4.5199C3.89392 3.67156 3.38464 4.17061 3.38464 4.78409V5.74612H2.75788V2.23375ZM12.311 5.74612V4.78409C12.311 4.70039 12.3832 4.62969 12.4687 4.62969H17.48C17.5654 4.62969 17.6375 4.70039 17.6375 4.78409V5.74612H12.311ZM4.36241 5.74612V4.78409C4.36241 4.70039 4.43449 4.62969 4.5199 4.62969H9.53128C9.61676 4.62969 9.68898 4.70039 9.68898 4.78409V5.74612H4.36241ZM21.0222 9.54751C21.0222 9.86383 20.7595 10.1212 20.4367 10.1212H1.56325C1.24045 10.1212 0.977775 9.86383 0.977775 9.54751V7.27797C0.977775 6.96165 1.24045 6.70425 1.56325 6.70425H20.4367C20.7595 6.70425 21.0222 6.96165 21.0222 7.27797V9.54751Z" fill="white"/>
    </g>
</svg>