<svg width="27" height="27" viewBox="0 0 27 27" fill="none" xmlns="http://www.w3.org/2000/svg">
    <g transform="translate(0,2)">
        <path d="M3.64914 0.410156H23.7509C25.5424 0.410156 27 2.2565 27 4.52572V19.1685C27 21.4377 25.5424 23.2841 23.7509 23.2841H3.64914C1.85764 23.2841 0.400003 21.4377 0.400003 19.1685V4.52617C0.399651 2.2565 1.85729 0.410156 3.64914 0.410156ZM5.23678 3.0951L13.7 10.0017L22.1632 3.0951H5.23678ZM3.64914 20.5996H23.7509C24.3737 20.5996 24.8803 19.9574 24.8803 19.1689V4.60225L14.3539 13.1762C14.3398 13.1873 14.3246 13.195 14.3101 13.2052C14.2949 13.216 14.2794 13.2263 14.2638 13.2361C14.1822 13.2894 14.0981 13.3323 14.0123 13.3605C14.0035 13.3637 13.9946 13.365 13.9858 13.3677C13.8915 13.3959 13.7961 13.4133 13.7007 13.4133H13.7C13.6993 13.4133 13.6986 13.4133 13.6986 13.4133C13.6032 13.4133 13.5078 13.3963 13.4135 13.3677C13.4047 13.365 13.3958 13.3637 13.387 13.3605C13.3011 13.3323 13.2174 13.2894 13.1355 13.2361C13.1199 13.2263 13.1044 13.216 13.0892 13.2052C13.0747 13.195 13.0595 13.1873 13.0454 13.1762L2.51899 4.60225V19.1685C2.51934 19.9574 3.0263 20.5996 3.64914 20.5996Z" fill="#353535"/>
    </g>
</svg>
