<svg width="155" height="97" viewBox="0 0 155 97" fill="none" xmlns="http://www.w3.org/2000/svg">
<rect width="154.682" height="96.3822" rx="10" fill="#E04430"/>
<path d="M19.6007 49.2635C21.3499 47.9361 23.0746 46.5786 24.8501 45.287C28.7391 42.4593 32.5061 39.4247 36.5999 36.926C40.6186 34.4743 45.665 37.7401 45.5298 42.3916C45.4077 46.6482 45.1108 50.9105 45.2498 55.1577C45.31 56.9701 46.1836 58.792 46.8618 60.5405C47.9196 63.2685 46.0464 66.2204 43.0667 66.3501C40.1226 66.4779 37.7347 64.8761 37.1523 61.9713C36.7878 60.1532 36.9156 58.2242 36.9287 56.344C36.9438 54.2157 37.1842 52.0837 37.1241 49.961C37.0771 48.2595 36.0908 47.4924 34.4093 48.2463C33.19 48.7915 31.9706 49.3913 30.8734 50.1452C24.9478 54.2176 19.069 58.3445 14.6408 64.171C13.1208 66.1715 11.8357 66.2392 9.80103 64.7256C5.99087 61.8923 5.13039 59.418 6.8382 54.9076C8.42764 50.7112 10.4022 46.6632 12.0368 42.4818C13.382 39.0412 14.4097 35.4783 15.7323 32.0283C16.0329 31.2443 16.8897 30.2685 17.6318 30.1275C21.5941 29.3736 25.3348 32.9044 24.3296 36.7926C23.4767 40.0959 21.7256 43.1681 20.3541 46.3342C19.9859 47.1821 19.5463 48 19.1404 48.831C19.2945 48.9739 19.4467 49.1187 19.6007 49.2616V49.2635Z" fill="#FEF9ED"/>
<path d="M88.4071 39.8052C88.657 50.1045 79.9658 62.4777 69.6907 66.817C67.1826 67.8774 64.1333 67.9131 61.3339 67.9056C60.1465 67.9018 58.7619 66.77 57.815 65.8092C54.2622 62.205 53.6028 58.1252 54.5421 52.983C56.2349 43.7177 61.6496 37.4155 68.6799 31.9876C71.6578 29.6882 75.1054 28.6955 78.8047 28.4868C83.1822 28.2405 87.6988 32.1887 88.238 36.733C88.3583 37.7502 88.3564 38.7805 88.4109 39.8052H88.4071ZM79.2856 42.3584C79.4153 38.3274 77.8371 36.8797 75.5337 38.4063C69.7659 42.2324 65.4522 47.2712 64.2291 54.3066C63.9962 55.6434 64.5485 57.7999 65.5104 58.4655C66.4104 59.0897 68.5747 58.6572 69.7621 57.9672C75.9752 54.3593 77.9761 48.1567 79.2856 42.3584Z" fill="#FEF9ED"/>
<path d="M121.238 82.6921C120.438 83.1377 119.679 83.5231 118.957 83.9687C109.605 89.7539 100.699 83.2261 97.6294 76.3993C95.0142 70.5841 95.1062 64.4135 95.9216 58.2523C97.0677 49.5943 99.3804 41.1694 103.174 33.3763C107.57 24.346 112.034 18.4217 118.027 12.1026C122.944 6.91719 129.324 5.40369 136.244 6.19898C139.977 6.62765 142.575 8.92329 144.853 11.8901C148.046 16.0509 149.138 20.8001 148.511 25.6903C147.735 31.7424 146.205 37.7081 144.777 43.6568C144.482 44.8846 143.19 45.8679 142.382 46.9809C142.079 47.3964 141.709 47.8307 141.604 48.3102C139.477 57.9195 135.348 66.6095 129.463 74.4515C128.391 75.8823 128.242 76.8393 129.202 78.3641C130.833 80.9568 132.278 83.6792 133.625 86.4317C134.976 89.1917 134.138 90.4063 131.053 90.3819C127.763 90.3555 125.056 89.4117 123.682 85.9899C123.207 84.8091 122.134 83.8691 121.24 82.694L121.238 82.6921ZM130.352 45.4317C130.352 44.5104 130.39 43.7978 130.345 43.0928C130.217 41.0434 128.475 38.4338 127.03 38.3643C124.785 38.2571 124.426 40.2782 123.581 41.7147C123.463 41.9158 123.403 42.1508 123.305 42.3671C122.194 44.8413 121.426 44.9861 119.38 43.0984C119.034 42.7788 118.734 42.4084 118.407 42.0681C115.872 39.4247 114.522 39.3607 111.854 41.7523C109.607 43.7678 109.319 46.7741 111.508 49.3273C114.529 52.8526 117.798 56.1635 120.943 59.5815C121.943 60.6683 122.752 60.6119 123.557 59.354C125.001 57.0998 126.444 54.8417 127.981 52.6495C129.557 50.4046 130.115 48.4154 130.352 45.4336V45.4317Z" fill="#FEF9ED"/>
</svg>
