<?xml version="1.0" encoding="UTF-8" standalone="no"?>
<!DOCTYPE svg PUBLIC "-//W3C//DTD SVG 20010904//EN"
              "http://www.w3.org/TR/2001/REC-SVG-20010904/DTD/svg10.dtd">

<svg xmlns="http://www.w3.org/2000/svg"
     width="2.99667in" height="1.74667in"
     viewBox="0 0 899 524">
  <rect width="100%" height="100%" fill="#FF0000" rx="50" />
  <path id="Markering"
        fill="#FFFFFF" stroke="none" stroke-width="1"
        d="M 681.00,434.00
           C 684.70,447.09 688.25,447.79 694.31,457.00
             694.31,457.00 703.63,474.00 703.63,474.00
             709.33,481.90 719.19,487.88 729.00,488.00
             734.43,488.06 745.48,488.55 743.90,480.00
             743.12,475.78 736.07,464.19 733.60,460.00
             733.60,460.00 727.13,447.00 727.13,447.00
             727.13,447.00 714.90,426.00 714.90,426.00
             712.53,421.48 706.04,412.97 708.61,408.00
             708.61,408.00 723.97,387.00 723.97,387.00
             731.74,375.61 741.89,357.54 747.69,345.00
             747.69,345.00 764.43,305.00 764.43,305.00
             764.43,305.00 775.33,280.00 775.33,280.00
             776.84,275.52 778.56,270.73 778.91,266.00
             779.11,263.30 778.68,257.26 779.60,255.14
             781.06,251.75 784.13,252.38 787.67,249.28
             790.80,246.55 794.09,239.86 795.82,236.00
             804.28,217.15 813.20,176.91 815.72,156.00
             815.72,156.00 816.58,146.00 816.58,146.00
             817.45,139.59 818.66,132.39 817.54,126.00
             817.54,126.00 816.09,118.00 816.09,118.00
             815.33,108.30 814.49,96.97 810.49,88.00
             807.75,81.87 803.07,76.74 799.60,71.00
             792.78,59.73 786.10,48.74 774.00,42.40
             761.83,36.02 749.25,36.85 736.00,37.00
             719.77,37.19 705.92,43.16 692.00,50.83
             676.34,59.46 664.22,66.86 650.97,79.18
             650.97,79.18 637.92,93.83 637.92,93.83
             637.92,93.83 628.00,104.09 628.00,104.09
             617.78,115.93 600.09,142.85 593.26,157.00
             587.80,168.30 589.67,170.75 587.23,177.00
             587.23,177.00 582.01,188.00 582.01,188.00
             582.01,188.00 568.97,225.00 568.97,225.00
             568.97,225.00 551.89,281.00 551.89,281.00
             548.70,294.85 544.02,324.12 544.00,338.00
             544.00,338.00 544.00,360.00 544.00,360.00
             544.11,374.88 549.86,397.28 555.72,411.00
             558.39,417.26 560.25,422.47 564.53,428.00
             573.51,439.61 591.58,451.26 606.00,454.49
             612.00,455.83 617.89,456.01 624.00,456.00
             645.84,455.97 663.57,446.23 681.00,434.00 Z
           M 460.00,199.43
           C 417.85,206.33 388.72,233.31 366.00,268.00
             360.31,276.68 354.64,285.54 350.31,295.00
             347.29,301.58 342.95,312.99 341.51,320.00
             341.51,320.00 340.69,329.96 340.69,329.96
             339.88,333.13 337.92,334.12 337.26,336.17
             336.33,339.03 338.32,340.39 337.91,347.00
             337.58,352.33 336.04,356.44 336.84,362.00
             339.64,381.29 359.06,408.70 381.00,406.04
             400.74,403.65 414.79,395.42 431.00,384.67
             439.71,378.89 448.32,373.06 456.00,365.91
             463.78,358.66 470.54,349.65 476.71,341.00
             493.74,317.10 507.95,287.92 508.00,258.00
             508.02,244.28 507.27,228.37 496.96,218.04
             491.38,212.45 487.95,212.08 482.17,208.17
             472.92,201.94 472.85,197.85 460.00,199.43 Z
           M 278.09,340.00
           C 275.14,336.59 277.15,335.57 278.09,331.00
             279.40,325.58 279.99,320.54 280.00,315.00
             280.03,298.36 280.55,298.65 277.61,282.00
             276.95,278.21 277.16,274.61 275.64,271.00
             273.45,265.82 269.68,262.27 265.68,258.49
             261.51,254.55 253.67,247.39 248.00,246.28
             240.61,244.82 231.72,249.75 225.00,252.32
             202.00,261.09 183.96,277.94 164.00,291.66
             164.00,291.66 141.00,307.00 141.00,307.00
             144.77,288.31 157.22,273.46 164.07,256.00
             169.87,241.23 169.12,228.10 159.70,215.00
             156.67,210.79 152.43,205.99 147.00,205.24
             142.70,204.64 136.30,207.56 133.98,211.21
             132.35,213.78 132.12,218.91 131.54,222.00
             130.49,227.62 128.53,234.63 126.56,240.00
             126.56,240.00 115.14,264.00 115.14,264.00
             115.14,264.00 105.69,288.00 105.69,288.00
             105.69,288.00 100.65,302.00 100.65,302.00
             95.45,313.72 90.09,317.57 86.56,330.00
             86.56,330.00 82.06,350.00 82.06,350.00
             81.22,353.98 80.18,359.15 82.06,363.00
             85.79,370.94 100.89,386.32 110.96,382.40
             114.54,381.00 116.93,376.14 119.00,373.00
             122.72,367.37 128.36,358.95 133.17,354.44
             146.28,342.14 183.61,317.07 200.00,306.34
             200.00,306.34 229.00,288.06 229.00,288.06
             232.55,285.90 238.61,282.41 242.82,284.40
             249.94,287.77 249.07,302.37 249.00,309.00
             248.86,320.17 245.83,318.08 246.00,333.00
             246.00,333.00 246.91,343.00 246.91,343.00
             248.44,364.88 252.63,385.85 278.91,388.48
             286.88,389.28 293.93,383.39 291.35,375.00
             289.66,369.52 276.19,356.33 275.53,348.00
             275.32,345.34 277.04,342.46 278.09,340.00 Z
           M 681.00,342.00
           C 677.26,332.23 663.90,316.49 656.17,309.32
             656.17,309.32 643.00,297.91 643.00,297.91
             643.00,297.91 631.83,286.00 631.83,286.00
             627.48,281.19 618.32,273.55 616.15,268.00
             614.76,264.45 614.96,259.80 615.00,256.00
             615.14,244.48 618.37,244.07 626.09,236.82
             633.50,229.85 636.34,226.00 647.00,226.00
             649.28,226.00 651.65,225.94 653.83,226.68
             664.48,230.32 664.04,237.96 670.09,245.89
             673.68,250.61 675.99,249.08 679.00,255.00
             682.20,244.54 684.34,229.00 693.18,221.42
             696.11,218.91 707.10,215.85 710.51,218.04
             711.77,218.85 715.13,224.31 716.45,226.00
             719.85,230.35 722.31,232.73 724.65,238.00
             728.73,247.19 728.13,259.09 728.00,269.00
             727.76,287.12 706.33,311.13 695.16,324.83
             691.67,329.11 684.91,339.65 681.00,342.00 Z
           M 455.00,234.26
           C 456.56,234.19 457.38,234.04 459.00,234.26
             475.81,235.78 475.06,247.45 475.00,261.00
             474.92,277.26 468.71,291.90 461.08,306.00
             448.85,328.61 433.54,350.21 413.00,366.11
             401.88,374.72 384.21,386.33 372.39,371.96
             370.93,370.19 369.86,368.16 369.11,366.00
             367.94,362.65 367.94,359.51 368.02,356.01
             368.35,342.03 375.20,330.24 381.14,318.00
             391.49,296.68 404.52,273.22 420.91,256.04
             431.80,244.63 439.13,237.76 455.00,234.26 Z
           M 714.00,308.00
           C 714.00,308.00 714.00,309.00 714.00,309.00
             714.00,309.00 713.00,308.00 713.00,308.00
             713.00,308.00 714.00,308.00 714.00,308.00 Z" />
</svg>
