<svg width="382" height="227" viewBox="0 0 382 227" fill="none" xmlns="http://www.w3.org/2000/svg">
<g clip-path="url(#clip0_4542_5376)">
<path d="M308.181 206.314C306.028 207.512 303.986 208.549 302.046 209.748C276.886 225.311 252.929 207.75 244.671 189.385C237.635 173.741 237.883 157.142 240.076 140.567C243.159 117.276 249.381 94.6117 259.585 73.647C271.412 49.3543 283.421 33.4171 299.544 16.4178C312.771 2.46835 329.935 -1.60319 348.549 0.536263C358.592 1.68945 365.582 7.86504 371.707 15.8463C380.299 27.0392 383.236 39.8153 381.548 52.9707C379.46 69.2518 375.346 85.3003 371.505 101.303C370.712 104.606 367.234 107.251 365.061 110.245C364.247 111.363 363.252 112.532 362.969 113.821C357.247 139.672 346.138 163.049 330.309 184.145C327.423 187.994 327.023 190.569 329.606 194.671C333.993 201.645 337.88 208.969 341.504 216.374C345.138 223.799 342.883 227.066 334.584 227C325.735 226.929 318.451 224.39 314.757 215.185C313.478 212.009 310.592 209.48 308.186 206.319L308.181 206.314ZM332.699 106.078C332.699 103.599 332.8 101.683 332.679 99.7859C332.335 94.2728 327.65 87.2526 323.763 87.0654C317.724 86.7771 316.758 92.2143 314.484 96.0785C314.166 96.6197 314.004 97.2519 313.741 97.8335C310.754 104.49 308.687 104.879 303.183 99.801C302.253 98.9412 301.444 97.9448 300.565 97.0293C293.747 89.918 290.113 89.7461 282.936 96.1796C276.891 101.602 276.118 109.689 282.006 116.558C290.133 126.041 298.927 134.948 307.388 144.143C310.077 147.066 312.255 146.915 314.418 143.531C318.305 137.467 322.187 131.392 326.321 125.495C330.561 119.456 332.062 114.105 332.699 106.083V106.078Z" fill="#E04430"/>
<path d="M36.5879 137.891C41.2934 134.321 45.9331 130.669 50.7093 127.194C61.1715 119.587 71.3051 111.424 82.3181 104.702C93.129 98.1067 106.705 106.892 106.341 119.405C106.012 130.856 105.214 142.322 105.588 153.748C105.749 158.624 108.1 163.525 109.924 168.228C112.77 175.567 107.731 183.508 99.7146 183.857C91.7947 184.201 85.3709 179.892 83.8041 172.077C82.8236 167.186 83.1672 161.997 83.2026 156.939C83.2431 151.214 83.89 145.478 83.7283 139.768C83.6019 135.191 80.9485 133.127 76.425 135.155C73.1448 136.622 69.8646 138.235 66.913 140.264C50.9721 151.219 35.1576 162.321 23.2449 177.995C19.156 183.376 15.699 183.559 10.2253 179.487C-0.0245697 171.865 -2.33938 165.209 2.25487 153.075C6.5307 141.786 11.8426 130.897 16.2398 119.648C19.8586 110.392 22.6232 100.808 26.1814 91.5265C26.99 89.4174 29.2947 86.7924 31.2911 86.413C41.9504 84.3848 52.0133 93.8834 49.3093 104.343C47.0147 113.23 42.3042 121.494 38.6146 130.011C37.624 132.292 36.4413 134.493 35.3496 136.728C35.7641 137.113 36.1735 137.502 36.5879 137.886V137.891Z" fill="#E04430"/>
<path d="M224.062 112.87C224.734 140.577 201.353 173.862 173.712 185.536C166.965 188.388 158.762 188.484 151.231 188.464C148.037 188.454 144.312 185.409 141.764 182.825C132.207 173.129 130.433 162.153 132.96 148.32C137.514 123.395 152.08 106.442 170.993 91.8397C179.004 85.654 188.278 82.9834 198.23 82.422C210.006 81.7594 222.156 92.3809 223.607 104.606C223.93 107.342 223.925 110.114 224.072 112.87H224.062ZM199.524 119.739C199.872 108.895 195.627 105 189.43 109.107C173.914 119.4 162.31 132.955 159.019 151.881C158.393 155.477 159.879 161.278 162.466 163.069C164.887 164.748 170.71 163.585 173.904 161.729C190.618 152.023 196.001 135.337 199.524 119.739Z" fill="#E04430"/>
</g>
<defs>
<clipPath id="clip0_4542_5376">
<rect width="382" height="227" fill="white"/>
</clipPath>
</defs>
</svg>
