<svg width="26" height="26" viewBox="0 0 26 26" fill="None" xmlns="http://www.w3.org/2000/svg">
    <circle cx="13" cy="13" r="13" fill="#CD5D7E" />
    <g transform="translate(8.5,4.5) scale(0.95 0.95)">
        <path d="M5.40042 16.875C5.40042 17.4949 4.89697 18 4.2754 18C3.65383 18 3.15039 17.4949 3.15039 16.875C3.15039 16.2512 3.65383 15.75 4.2754 15.75C4.89697 15.75 5.40042 16.2512 5.40042 16.875Z" fill="white"/>
        <path d="M4.3178 14.612C3.56629 14.612 2.86091 14.3178 2.32934 13.7857C1.79777 13.1641 1.50527 12.4587 1.50527 11.7072C1.50527 10.9557 1.79777 10.2503 2.32934 9.81103L6.09138 6.04899C6.51608 5.6226 6.75008 5.05785 6.75008 4.45822C6.75008 3.85633 6.51608 3.29158 6.09082 2.86745C5.21387 1.9905 3.78679 1.98881 2.91041 2.86745C2.48403 3.29158 2.25003 3.85577 2.25003 4.45822H0C0 3.25614 0.46913 2.12494 1.32077 1.27443C3.01953 -0.426028 5.98113 -0.42434 7.68215 1.27668C8.5321 2.12438 9.0001 3.25389 9.0001 4.45822C9.0001 5.66029 8.5321 6.78981 7.68159 7.63975L3.91955 11.309C3.70073 11.5289 3.70073 11.8844 3.91955 12.1044C4.13949 12.3243 4.49499 12.3243 4.71493 12.1044C4.85781 11.9592 4.87974 11.7922 4.87974 11.7044H7.12977C7.12977 12.4559 6.83727 13.1636 6.3057 13.7851C5.77469 14.3173 5.06931 14.612 4.3178 14.612Z" fill="white"/>
        <path d="M5.40042 16.875C5.40042 17.4949 4.89697 18 4.2754 18C3.65383 18 3.15039 17.4949 3.15039 16.875C3.15039 16.2512 3.65383 15.75 4.2754 15.75C4.89697 15.75 5.40042 16.2512 5.40042 16.875Z" fill="white"/>
        <path d="M4.3178 14.612C3.56629 14.612 2.86091 14.3178 2.32934 13.7857C1.79777 13.1641 1.50527 12.4587 1.50527 11.7072C1.50527 10.9557 1.79777 10.2503 2.32934 9.81103L6.09138 6.04899C6.51608 5.6226 6.75008 5.05785 6.75008 4.45822C6.75008 3.85633 6.51608 3.29158 6.09082 2.86745C5.21387 1.9905 3.78679 1.98881 2.91041 2.86745C2.48403 3.29158 2.25003 3.85577 2.25003 4.45822H0C0 3.25614 0.46913 2.12494 1.32077 1.27443C3.01953 -0.426028 5.98113 -0.42434 7.68215 1.27668C8.5321 2.12438 9.0001 3.25389 9.0001 4.45822C9.0001 5.66029 8.5321 6.78981 7.68159 7.63975L3.91955 11.309C3.70073 11.5289 3.70073 11.8844 3.91955 12.1044C4.13949 12.3243 4.49499 12.3243 4.71493 12.1044C4.85781 11.9592 4.87974 11.7922 4.87974 11.7044H7.12977C7.12977 12.4559 6.83727 13.1636 6.3057 13.7851C5.77469 14.3173 5.06931 14.612 4.3178 14.612Z" fill="white"/>
    </g>
</svg>


