<svg width="84" height="46" viewBox="0 0 84 46" fill="none" xmlns="http://www.w3.org/2000/svg">
<path d="M17.8515 36.4167H22.7694L56.5045 17.6812L51.5866 14.95L17.8515 33.6854V36.4167ZM10.9492 40.25V32.1042L56.5045 6.85208C57.1947 6.50069 57.9569 6.22917 58.7909 6.0375C59.6249 5.84583 60.5021 5.75 61.4224 5.75C62.3427 5.75 63.2343 5.84583 64.0971 6.0375C64.9599 6.22917 65.7076 6.51667 66.3403 6.9L71.0857 9.58333C71.7759 9.93472 72.2792 10.35 72.5955 10.8292C72.9119 11.3083 73.0701 11.7875 73.0701 12.2667C73.0701 12.7778 72.9119 13.2649 72.5955 13.7281C72.2792 14.1913 71.7759 14.6146 71.0857 14.9979L25.6166 40.25H10.9492ZM54.0024 16.3396L51.5866 14.95L56.5045 17.6812L54.0024 16.3396Z" fill="#1D1B20"/>
</svg>
