<svg width="38" height="25" viewBox="0 0 38 25" fill="none" xmlns="http://www.w3.org/2000/svg">
<path d="M0.781944 -1.62685e-06C2.67138 -1.54426e-06 4.45667 0.865626 5.62682 2.34911L18.3872 18.5264C18.538 18.7085 18.7619 18.8175 19.0008 18.8175C19.2337 18.8175 19.4636 18.7085 19.6114 18.5264L32.3759 2.34883C33.5463 0.865496 35.3317 -1.16637e-07 37.2211 -3.40459e-08C37.5197 -2.09938e-08 37.7944 0.171692 37.9213 0.437443C38.0512 0.706179 38.0199 1.02866 37.8303 1.26157L19.6129 24.358C19.4636 24.5416 19.2352 24.6491 19.0023 24.6491C18.7634 24.6491 18.538 24.5416 18.3887 24.358L0.168331 1.26157C-0.0182915 1.03015 -0.051136 0.706178 0.077259 0.437441C0.205658 0.171691 0.481853 -1.63997e-06 0.781944 -1.62685e-06Z" fill="#030104"/>
</svg>
